<svg width="189" height="31" viewBox="0 0 189 31" fill="none" xmlns="http://www.w3.org/2000/svg">
<path d="M8.224 25.354L5.636 30.454H0L15.229 0L25.389 20.329H19.682L15.229 11.383L10.716 20.329L8.224 25.354ZM30.454 30.454H24.782L22.275 25.389H27.9L30.454 30.454Z" fill="white"/>
<path d="M37.3741 0V18.464L32.3091 23.564V0H37.3741ZM52.6031 25.354V30.454H32.3141L37.3791 25.354H52.6031Z" fill="white"/>
<path d="M73.0469 21.93L78.1069 23.605C77.4227 24.6464 76.6032 25.5923 75.6699 26.418C74.7581 27.2604 73.7478 27.9893 72.6609 28.589C71.579 29.2084 70.4138 29.6694 69.2009 29.958C67.9617 30.3011 66.6807 30.4694 65.3949 30.458C63.3916 30.4822 61.4047 30.094 59.5577 29.3176C57.7108 28.5413 56.0433 27.3933 54.6589 25.945C53.211 24.5606 52.0632 22.8933 51.287 21.0465C50.5108 19.1998 50.1227 17.2131 50.1469 15.21C50.1216 13.2118 50.5095 11.23 51.2861 9.38872C52.0626 7.54746 53.2113 5.88651 54.6599 4.51C56.0369 3.05285 57.7031 1.89929 59.5516 1.1232C61.4002 0.347097 63.3904 -0.0344444 65.3949 0.00300029C67.4336 -0.0135559 69.454 0.387338 71.3319 1.181C73.1562 1.97641 74.8147 3.10773 76.2209 4.516L72.5649 8.091C70.6602 6.19065 68.0795 5.1234 65.3889 5.1234C62.6983 5.1234 60.1176 6.19065 58.2129 8.091C57.2617 9.02041 56.5111 10.1349 56.0073 11.3657C55.5035 12.5964 55.2573 13.9174 55.2839 15.247C55.2704 16.5806 55.5231 17.9035 56.027 19.1383C56.531 20.3731 57.2762 21.495 58.2191 22.4383C59.1619 23.3816 60.2834 24.1273 61.518 24.6319C62.7525 25.1365 64.0753 25.3898 65.4089 25.377C66.8623 25.3842 68.3009 25.085 69.6309 24.499C70.9319 23.8844 72.094 23.011 73.0459 21.932L73.0469 21.93ZM65.3949 12.713H78.1069L73.0469 17.778H65.3949V12.713Z" fill="white"/>
<path d="M105.483 4.51323C106.934 5.89461 108.083 7.56083 108.86 9.40743C109.637 11.254 110.023 13.2412 109.996 15.2442C110.03 17.249 109.647 19.2389 108.87 21.0873C108.093 22.9357 106.939 24.602 105.483 25.9802C104.08 27.4034 102.409 28.5335 100.566 29.3048C98.7226 30.0762 96.7445 30.4734 94.7464 30.4734C92.7483 30.4734 90.7702 30.0762 88.927 29.3048C87.0838 28.5335 85.4124 27.4034 84.0099 25.9802C82.5617 24.5958 81.4136 22.9284 80.6373 21.0814C79.8609 19.2345 79.4727 17.2476 79.4969 15.2442C79.4767 13.2422 79.8667 11.2572 80.6428 9.41167C81.419 7.5661 82.5649 5.89905 84.0099 4.51323C85.4124 3.0901 87.0838 1.95999 88.927 1.18862C90.7702 0.417253 92.7483 0.0200195 94.7464 0.0200195C96.7445 0.0200195 98.7226 0.417253 100.566 1.18862C102.409 1.95999 104.08 3.0901 105.483 4.51323ZM87.5499 8.08923C86.5987 9.01864 85.8481 10.1331 85.3443 11.3639C84.8405 12.5947 84.5943 13.9156 84.6209 15.2452C84.6074 16.5788 84.86 17.9016 85.3639 19.1363C85.8679 20.3711 86.613 21.4929 87.5557 22.4362C88.4984 23.3794 89.6198 24.1252 90.8543 24.6299C92.0887 25.1345 93.4114 25.3879 94.7449 25.3752C96.0748 25.4009 97.3959 25.1537 98.6267 24.6491C99.8574 24.1445 100.972 23.3931 101.901 22.4412C102.863 21.5087 103.623 20.3884 104.134 19.1498C104.644 17.9112 104.895 16.5808 104.87 15.2412C104.889 13.909 104.636 12.5869 104.125 11.3563C103.615 10.1257 102.858 9.01248 101.901 8.08523C99.9962 6.18488 97.4155 5.11763 94.7249 5.11763C92.0343 5.11763 89.4536 6.18488 87.5489 8.08523L87.5499 8.08923Z" fill="white"/>
<path d="M132.597 15.2241C132.617 17.2404 132.216 19.2389 131.419 21.0911C130.623 22.8947 129.515 24.5432 128.144 25.9601C126.745 27.3552 125.09 28.4672 123.27 29.2351C121.41 30.0488 119.4 30.464 117.37 30.4541H107.243L112.328 25.3541H117.393C118.751 25.3538 120.096 25.0881 121.353 24.5721C122.567 24.057 123.666 23.307 124.589 22.3651C125.501 21.4247 126.237 20.3274 126.76 19.1261C127.289 17.8873 127.562 16.5542 127.562 15.2071C127.562 13.86 127.289 12.5268 126.76 11.2881C126.237 10.0781 125.488 8.97886 124.554 8.04906C123.622 7.12005 122.525 6.37206 121.32 5.84305C120.074 5.33821 118.743 5.07945 117.399 5.08105H112.329L107.243 5.50463e-05H117.373C119.403 -0.00550073 121.412 0.409556 123.273 1.21906C125.078 2.00221 126.718 3.12026 128.107 4.51405C129.504 5.9178 130.628 7.5688 131.422 9.38306C132.215 11.2274 132.615 13.2166 132.597 15.2241Z" fill="white"/>
<path d="M154.029 0V5.1H138.8L133.735 0H154.029ZM138.8 12.712H154.029V17.777H133.735V12.712H138.8ZM138.8 25.354H154.029V30.454H133.735V30.038L138.8 25.354Z" fill="white"/>
<path d="M173.094 11.117L169.9 15.224L157.96 0H164.479L173.094 11.117ZM169.9 15.224L173.094 19.336L164.479 30.453H157.96L169.9 15.224ZM176.334 15.224L173.095 11.117L181.774 0H188.208L176.334 15.224ZM176.334 15.224L188.209 30.453H181.775L173.095 19.336L176.334 15.224Z" fill="white"/>
</svg>
