<svg width="42" height="42" viewBox="0 0 42 42" fill="none" xmlns="http://www.w3.org/2000/svg">
<path d="M42 21C42 9.40202 32.598 0 21 0C9.40202 0 0 9.40202 0 21C0 32.598 9.40202 42 21 42C32.598 42 42 32.598 42 21Z" fill="#245EC7"/>
<path d="M28.5731 14.5386L28.3815 13.6434L27.9497 14.5386L25.3391 20.1915L23.1157 24.948L21.1903 29.0902L20.0812 31.4764H16.947L19.572 25.8234L20.1954 24.4781L19.8489 22.9031L18.8567 18.2661L18.0561 14.5438L17.8644 13.6487L17.4326 14.5438L14.8221 20.1967L12.1971 25.8287L9.57206 31.4816H6.42993L9.05493 25.8287L11.6655 20.1967L14.2905 14.5438L16.8525 9.0313L16.9168 8.91187H19.6547L19.7859 9.50905L20.7782 14.1264L20.874 14.5438L21.7704 18.7438L22.0907 20.1967L22.1196 20.328L22.1812 20.1967L24.8062 14.5438L27.3682 9.0313L27.4326 8.91187H30.1704L30.3017 9.50905L35.5687 31.4816H32.4345L28.5731 14.5386Z" fill="white"/>
</svg>
