<svg width="42" height="42" viewBox="0 0 42 42" fill="none" xmlns="http://www.w3.org/2000/svg">
<path d="M42 21C42 9.40202 32.598 0 21 0C9.40202 0 0 9.40202 0 21C0 32.598 9.40202 42 21 42C32.598 42 42 32.598 42 21Z" fill="#FFEE55"/>
<path d="M22.8614 9.6022C23.5298 12.3685 23.3039 14.8027 22.3563 15.0379C21.4087 15.2737 20.0978 13.2215 19.4294 10.4542C18.7605 7.68786 18.9864 5.25362 19.934 5.01843C20.8821 4.78271 22.1925 6.83537 22.8609 9.6022H22.8614ZM33.906 11.981C32.4242 10.4133 29.4774 10.8384 27.3234 12.9298C25.1695 15.0212 24.624 17.9878 26.1053 19.555C27.5865 21.1222 30.5333 20.6975 32.6873 18.6061C34.8412 16.5147 35.3867 13.5482 33.9055 11.981H33.906ZM22.124 35.9827C23.0716 35.747 23.2646 33.1755 22.5552 30.2386C21.8448 27.3022 20.5016 25.1123 19.5529 25.3475C18.6058 25.5832 18.4128 28.1547 19.1227 31.0911C19.8326 34.028 21.1764 36.2179 22.124 35.9827ZM12.4636 13.4158C15.1981 14.221 17.1963 15.6332 16.9268 16.5707C16.6572 17.5077 14.2214 17.6148 11.4875 16.8097C8.753 16.0045 6.75484 14.5923 7.02435 13.6553C7.29441 12.7178 9.72971 12.6107 12.4642 13.4158H12.4636ZM30.2105 23.9988C33.1126 24.8535 35.2466 26.3055 34.977 27.243C34.7075 28.18 32.1364 28.2473 29.2343 27.3926C26.3316 26.538 24.1982 25.086 24.4677 24.1484C24.7372 23.2114 27.3084 23.1442 30.2105 23.9988ZM15.5404 22.0323C14.8623 21.3305 12.6383 22.3519 10.5733 24.3142C8.50775 26.2754 7.38281 28.4346 8.06144 29.1364C8.73899 29.8382 10.963 28.8167 13.0285 26.855C15.0941 24.8933 16.2185 22.7341 15.5404 22.0328V22.0323Z" fill="black"/>
</svg>
