<svg width="15" height="14" viewBox="0 0 15 14" fill="none" xmlns="http://www.w3.org/2000/svg">
<path d="M12.952 3.57007H2C1.44772 3.57007 1 4.01778 1 4.57007V11.5371C1 12.0894 1.44772 12.5371 2 12.5371H12.952C13.5043 12.5371 13.952 12.0894 13.952 11.5371V4.57007C13.952 4.01778 13.5043 3.57007 12.952 3.57007Z" stroke="#EDF2F6" stroke-linejoin="round"/>
<path d="M12.313 3.57002V2.63602C12.3129 2.40694 12.2623 2.1807 12.1647 1.97344C12.0672 1.76618 11.925 1.583 11.7485 1.43696C11.572 1.29093 11.3655 1.18565 11.1436 1.12862C10.9218 1.07158 10.69 1.06421 10.465 1.10702L2.265 2.50703C1.90905 2.57499 1.58795 2.76498 1.35703 3.04426C1.12612 3.32355 0.999854 3.67464 1 4.03702V5.56402" stroke="#EDF2F6" stroke-linejoin="round"/>
<path d="M10.967 9.05007C10.7692 9.05007 10.5759 8.9914 10.4114 8.88152C10.247 8.77164 10.1188 8.61545 10.0431 8.43273C9.9674 8.25 9.94762 8.04895 9.9862 7.85497C10.0248 7.66099 10.12 7.4828 10.2599 7.34294C10.3997 7.20309 10.5779 7.10785 10.7719 7.06926C10.9659 7.03068 11.1669 7.05049 11.3497 7.12618C11.5324 7.20186 11.6886 7.33004 11.7985 7.49449C11.9083 7.65894 11.967 7.85228 11.967 8.05007C11.967 8.31528 11.8616 8.56962 11.6741 8.75716C11.4865 8.94469 11.2322 9.05007 10.967 9.05007Z" fill="#EDF2F6"/>
</svg>
